<?xml version="1.0" encoding="UTF-8" standalone="no"?>
<!-- Created with Inkscape (http://www.inkscape.org/) -->

<svg
   xmlns:dc="http://purl.org/dc/elements/1.1/"
   xmlns:cc="http://creativecommons.org/ns#"
   xmlns:rdf="http://www.w3.org/1999/02/22-rdf-syntax-ns#"
   xmlns:svg="http://www.w3.org/2000/svg"
   xmlns="http://www.w3.org/2000/svg"
   version="1.1"
   width="639.50024"
   height="167.02827"
   id="svg3203">
  <defs
     id="defs3205" />
  <g
     transform="translate(-88.8213,-457.41948)"
     id="layer1">
    <path
       d="m 727.32155,623.44775 -637.50025,0 0,-165.02827 637.4918,0 0.008,165.02827 z"
       id="path42"
       style="fill:#1f1917;fill-opacity:1;fill-rule:nonzero;stroke:none" />
    <path
       d="m 91.784431,460.38857 0,161.08316 468.511599,0 0,-161.08316 -468.511599,0 z m 470.458109,0 0,161.08316 163.10909,0 0,-161.08316 c 0,-0.003 -8.93803,0 -8.93803,0 0,0 -154.17106,-0.003 -154.17106,0 z"
       id="path44"
       style="fill:#ffffff;fill-opacity:1;fill-rule:nonzero;stroke:none" />
    <path
       d="m 643.75736,466.42671 c -40.838,0 -73.92743,33.1284 -73.92743,73.96715 0,40.83799 33.08943,73.92744 73.92743,73.92744 40.83874,0 73.96715,-33.08945 73.96715,-73.92744 0,-40.83875 -33.12841,-73.96715 -73.96715,-73.96715 z M 159.634,494.98868 c -29.03771,0 -33.51921,21.90845 -38.25476,44.88876 -4.68524,22.74643 -9.25373,44.88877 19.78283,44.88877 16.44443,0 26.95869,-7.44089 31.73994,-30.66737 l -17.35964,0 c -1.64406,6.86232 -3.55415,17.67743 -11.71875,17.67743 -9.91158,0 -9.19651,-9.63128 -4.60805,-31.89883 4.58193,-22.26179 7.84952,-31.8591 17.75688,-31.8591 5.25014,0 6.35465,4.30214 3.97246,15.8501 l 17.24047,0 c 4.54391,-18.65339 -0.59385,-28.87976 -18.55138,-28.87976 z m 348.98037,0 c -21.45649,0 -29.97739,10.83151 -32.77278,24.43061 -5.3385,25.87287 29.91735,26.85966 26.69492,42.50529 -1.21702,5.89494 -4.93545,9.85169 -10.88454,9.85169 -9.67772,0 -8.58478,-6.95136 -6.87235,-15.25423 l -17.63771,0 c -4.02892,15.03923 -2.66218,28.24417 19.14725,28.24417 13.4105,0 29.92161,-2.6377 34.56037,-25.14565 5.62575,-27.31648 -30.12875,-25.85935 -26.73463,-42.3464 1.23658,-6.01782 5.29386,-9.25582 11.0037,-9.25582 7.11272,0 6.82303,6.61123 5.48199,13.10911 l 17.12129,0 c 4.91184,-18.17334 -1.96111,-26.13877 -19.10751,-26.13877 z m -299.48355,1.46981 -41.23411,86.87764 17.35964,0 8.73941,-19.26642 24.03336,0 0.71504,19.26642 18.55138,0 -4.96557,-86.87764 -23.19915,0 z m 50.21186,0 -17.91579,86.87764 17.16102,0 13.82415,-67.01536 0.23835,0 1.54926,67.01536 16.80349,0 30.03178,-67.01536 0.23834,0 -13.82415,67.01536 17.16102,0 17.87606,-86.87764 -27.40996,0 -26.13877,59.07043 -0.23835,0 -1.03283,-59.07043 -28.32362,0 z m 93.82944,0 -17.91579,86.87764 17.63771,0 7.2696,-35.3946 13.06938,0 c 20.64233,0 26.64998,-15.63423 28.68115,-25.50317 3.27697,-15.88411 -0.91139,-25.97987 -17.00212,-25.97987 l -31.73993,0 z m 60.61969,0 -12.71186,61.61281 c -3.36801,16.36838 3.83957,26.69491 23.19915,26.69491 21.45996,0 31.41114,-13.69914 34.08368,-26.69491 l 12.67214,-61.61281 -17.59798,0 -12.4338,60.42107 c -1.98469,9.62433 -6.60438,14.89671 -14.30084,14.89671 -6.41301,0 -9.95067,-4.18939 -7.74629,-14.89671 l 12.43379,-60.42107 -17.59799,0 z m -45.7627,13.34745 8.85857,0 c 7.93378,0 8.57041,6.01135 7.1107,13.10911 -1.19397,5.77475 -6.03124,11.67903 -11.28178,11.67903 l -9.77224,0 5.08475,-24.78814 z m -151.98622,3.37659 0.23835,0 0.79449,37.53972 -16.80349,0 15.77065,-37.53972 z m 260.2754,82.34905 c -3.05348,0 -4.92648,1.83757 -5.52172,4.6875 l -0.95339,4.56833 c -0.83299,3.92444 0.29871,5.60116 3.41632,5.60116 1.71356,0 3.12699,-0.36764 4.64777,-1.11229 l 1.50954,-7.07097 -4.72723,0 -0.43697,1.9465 2.5821,0 -0.83422,3.81356 c -0.41782,0.24155 -1.25531,0.55615 -2.4232,0.55615 -1.47502,0 -2.18599,-0.57283 -1.54926,-3.57521 l 0.99312,-4.6875 c 0.59217,-2.7651 2.49217,-2.86017 3.01907,-2.86017 1.88522,0 2.00253,0.94806 1.66843,2.50264 l 2.22457,0 c 0.80992,-3.2213 -0.46545,-4.3697 -3.61493,-4.3697 z m 11.1626,0.27807 -3.01906,14.30085 2.18485,0 1.35063,-6.39566 1.90678,0 c 0.61484,0 1.7054,0.0788 1.50954,1.54926 -0.16859,1.34874 -0.75271,3.5595 -0.35753,4.8464 l 2.18486,0 c -0.0967,-0.97967 0.0972,-2.81544 0.27807,-3.81356 0.42666,-2.38524 0.16759,-3.23512 -0.95339,-3.61494 1.40518,-0.4954 2.35047,-1.70711 2.66154,-3.17796 0.38019,-1.79729 -0.13088,-3.69439 -2.78072,-3.69439 l -4.96557,0 z m 17.79661,0 -7.58739,14.30085 2.2643,0 1.70816,-3.29714 5.08474,0 0.3178,3.29714 2.38347,0 -1.62871,-14.30085 -2.54237,0 z m 11.55985,0 -0.43697,1.94651 6.35593,0 -8.69968,10.05031 -0.47669,2.30403 9.09692,0 0.39725,-1.9465 -6.87235,0 8.8983,-10.28867 0.43697,-2.06568 -8.69968,0 z m -27.56885,1.94651 2.50265,0 c 1.164,0 1.43077,0.89929 1.23146,1.86705 -0.2504,1.1713 -1.04733,2.14513 -2.18485,2.14513 l -2.4232,0 0.87394,-4.01218 z m 16.72404,0.51642 0.55615,6.59428 -3.89301,0 3.33686,-6.59428 z"
       id="path48"
       style="fill:#1f1917;fill-opacity:1;fill-rule:nonzero;stroke:none" />
    <path
       d="m 614.59952,494.27363 c -21.38275,0 -25.10593,11.43917 -25.10593,45.68326 0,28.08838 1.74117,46.15997 25.10593,46.15997 23.36474,0 25.14566,-18.07159 25.14566,-46.15997 0,-34.24409 -3.76984,-45.68326 -25.14566,-45.68326 z m 52.67479,0.0397 c -16.03391,0 -25.11876,9.22981 -23.87447,25.90042 l 17.51853,0 c 0,-5.77166 0.37865,-12.83104 7.5874,-12.83104 4.96943,0 6.59428,4.21031 6.59428,8.69968 0,11.15931 -5.70289,15.53308 -33.05085,53.11175 l 0,15.77066 51.44332,0 0,-13.86388 -33.05084,0 c 9.44688,-10.77297 32.1769,-33.57262 32.1769,-53.70762 0,-16.80157 -10.302,-23.07997 -25.34427,-23.07997 z m -52.67479,13.06938 c 7.45798,0 7.5874,5.2395 7.5874,32.8125 0,27.05649 -0.62829,32.85222 -7.5874,32.85222 -6.96181,0 -7.54766,-5.79573 -7.54766,-32.85222 0,-27.573 0.0905,-32.8125 7.54766,-32.8125 z"
       id="path62"
       style="fill:#fffcbd;fill-opacity:1;fill-rule:nonzero;stroke:none" />
  </g>
</svg>
